<svg width="215" height="85" viewBox="0 0 215 85" fill="none" xmlns="http://www.w3.org/2000/svg">
<path d="M0 0H215V85H0V0Z" fill="white"/>
<path d="M112.026 33.8609L109.212 30.0492H103.182M112.026 33.8609H106.197M112.026 33.8609H117.051L119.262 37.4185V43.6442H115.845V37.4185H111.645M112.026 33.8609L111.645 37.4185M94.3379 33.8609L97.1519 30.0492H103.182M94.3379 33.8609H100.368M94.3379 33.8609H91.3228L89.7148 35.3856L95.2424 41.3572M94.3379 33.8609L95.2424 41.3572M103.182 30.0492L101.574 25.2211H104.589L103.182 30.0492ZM100.368 33.8609V48.8535M100.368 33.8609H106.197M100.368 48.8535H106.197M100.368 48.8535H97.1519M106.197 33.8609V48.8535M106.197 48.8535H109.212M111.645 37.4185L110.418 48.8535H109.212M95.2424 41.3572L96.1469 48.8535H97.1519M97.1519 48.8535V51.6487M97.1519 51.6487H95.2424L94.3379 63.2107H100.267M97.1519 51.6487H100.368M109.212 51.6487V48.8535M109.212 51.6487H110.418L112.026 63.2107H106.197M109.212 51.6487H106.197M106.197 51.6487V63.2107M106.197 51.6487H100.368M106.197 63.2107H100.267M100.368 51.6487L100.267 63.2107" stroke="black"/>
<circle cx="103.431" cy="45.2711" r="24.2711" fill="#8C7C60"/>
<path d="M111.752 33.8244L108.938 30.0128H102.908M111.752 33.8244H105.923M111.752 33.8244H116.777L118.988 37.382V43.6077H115.571V37.382H111.371M111.752 33.8244L111.371 37.382M94.0641 33.8244L96.8781 30.0128H102.908M94.0641 33.8244H100.094M94.0641 33.8244H91.049L89.441 35.3491L94.9686 41.3207M94.0641 33.8244L94.9686 41.3207M102.908 30.0128L101.3 25.1847H104.315L102.908 30.0128ZM100.094 33.8244V48.817M100.094 33.8244H105.923M100.094 48.817H105.923M100.094 48.817H96.8781M105.923 33.8244V48.817M105.923 48.817H108.938M111.371 37.382L110.144 48.817H108.938M94.9686 41.3207L95.8731 48.817H96.8781M96.8781 48.817V51.6122M96.8781 51.6122H94.9686L94.0641 63.1743H99.9936M96.8781 51.6122H100.094M108.938 51.6122V48.817M108.938 51.6122H110.144L111.752 63.1743H105.923M108.938 51.6122H105.923M105.923 51.6122V63.1743M105.923 51.6122H100.094M105.923 63.1743H99.9936M100.094 51.6122L99.9936 63.1743" stroke="white"/>
<path d="M126.923 65.4221V61.2133L131.268 60.3933V30.6855L126.923 29.8656V25.6294H142.364V29.8656L138.156 30.6855V45.7717L152.668 30.3302L152.75 30.2209L149.224 29.8656V25.6294H164.065V29.8656L160.32 30.6035L148.514 42.9294L161.687 60.53L165.486 61.2133V65.4221H150.099V61.2133L153.624 60.858V60.8306L144.032 47.6028L138.156 53.7521V60.3933L142.364 61.2133V65.4221H126.923Z" fill="#21313B" fill-opacity="0.9"/>
<path d="M168.328 65.4221V61.2133L171.225 60.8033L184.398 25.6294H191.094L204.103 60.8033L207 61.2133V65.4221H194.346V61.2133L197.189 60.694L195.084 54.4354H180.271L178.112 60.694L180.982 61.2133V65.4221H168.328ZM182.075 49.1333H193.308L188.142 34.4297L187.787 33.3638H187.623L187.241 34.4844L182.075 49.1333Z" fill="#21313B" fill-opacity="0.9"/>
<path d="M7.24597 65.8866V61.6777L11.3455 60.8578V41.3714L7 40.5515V36.3153H18.2327V60.8578L22.3049 61.6777V65.8866H7.24597Z" fill="#21313B" fill-opacity="0.9"/>
<path d="M28.3558 65.8866V61.6777L32.674 60.8578V31.1499L28.3558 30.33V26.0939H42.5402L54.2101 54.8725H54.3741L65.6888 26.0939H80.0371V30.33L75.6916 31.1499V60.8578L80.0371 61.6777V65.8866H64.4863V61.6777L69.0504 60.8578V51.5929L69.1051 34.1836L68.9684 34.1563L56.6425 64.9847H51.6411L38.9599 34.3202L38.8232 34.3476L39.1785 51.1283V60.8578L43.9067 61.6777V65.8866H28.3558Z" fill="#21313B" fill-opacity="0.9"/>
<circle cx="13.4272" cy="28.3393" r="4.66753" fill="#21313B"/>
<g style="mix-blend-mode:hue">
<circle cx="92" cy="55" r="17" fill="#C4C4C4"/>
</g>
<g style="mix-blend-mode:hue">
<circle cx="106" cy="27" r="16.5" fill="#5AC7C0"/>
<circle cx="106" cy="27" r="16.5" stroke="black"/>
</g>
<g style="mix-blend-mode:hue">
<circle cx="114.5" cy="50.5" r="12.5" fill="#E2FFB2"/>
</g>
</svg>
